<svg width="23" height="18" viewBox="0 0 23 18" fill="none" xmlns="http://www.w3.org/2000/svg">
<path d="M21.9861 3.43751C21.9214 3.35347 21.8383 3.28537 21.7432 3.23842C21.6481 3.19147 21.5436 3.16693 21.4375 3.16668H5.39584L5.08334 2.17362C5.04901 2.067 4.9894 1.97026 4.90959 1.89166C4.82978 1.81306 4.73214 1.75493 4.62501 1.72223L1.77778 0.847234C1.69024 0.820331 1.59825 0.810935 1.50707 0.819583C1.41589 0.828232 1.32731 0.854754 1.24638 0.897637C1.08293 0.984242 0.960588 1.13223 0.906255 1.30904C0.851923 1.48585 0.870054 1.677 0.956659 1.84045C1.04326 2.00389 1.19125 2.12623 1.36806 2.18057L3.86112 2.94446L7.04167 12.9931L5.90973 13.9236L5.81945 14.0139C5.53952 14.338 5.38092 14.7494 5.37079 15.1775C5.36065 15.6057 5.49961 16.0241 5.7639 16.3611C5.95317 16.5913 6.19369 16.774 6.46621 16.8946C6.73874 17.0152 7.0357 17.0703 7.33334 17.0556H18.9236C19.1078 17.0556 19.2844 16.9824 19.4147 16.8522C19.5449 16.7219 19.6181 16.5453 19.6181 16.3611C19.6181 16.1769 19.5449 16.0003 19.4147 15.8701C19.2844 15.7398 19.1078 15.6667 18.9236 15.6667H7.22223C7.14226 15.6639 7.06435 15.6406 6.99602 15.599C6.92769 15.5574 6.87125 15.4988 6.83216 15.429C6.79306 15.3592 6.77263 15.2805 6.77284 15.2005C6.77304 15.1205 6.79388 15.0418 6.83334 14.9722L8.50695 13.5833H19.2222C19.3809 13.588 19.5363 13.5381 19.6627 13.4421C19.789 13.3461 19.8787 13.2096 19.9167 13.0556L22.1389 4.02779C22.16 3.92426 22.1572 3.81728 22.1308 3.71499C22.1043 3.6127 22.0548 3.51779 21.9861 3.43751Z" fill="black"/>
</svg>
