<svg width="23" height="21" viewBox="0 0 23 21" fill="none" xmlns="http://www.w3.org/2000/svg">
<path d="M22.1079 10.3291L12.0518 0.280254C11.9794 0.207705 11.8933 0.150148 11.7987 0.110877C11.704 0.0716056 11.6025 0.0513916 11.5 0.0513916C11.3975 0.0513916 11.296 0.0716056 11.2013 0.110877C11.1067 0.150148 11.0206 0.207705 10.9482 0.280254L0.89209 10.3291C0.599121 10.6221 0.433105 11.02 0.433105 11.435C0.433105 12.2969 1.13379 12.9975 1.99561 12.9975H3.05518V20.168C3.05518 20.6001 3.4043 20.9492 3.83643 20.9492H9.9375V15.4804H12.6719V20.9492H19.1636C19.5957 20.9492 19.9448 20.6001 19.9448 20.168V12.9975H21.0044C21.4194 12.9975 21.8174 12.834 22.1104 12.5386C22.7183 11.9282 22.7183 10.9394 22.1079 10.3291V10.3291Z" fill="#FEC431"/>
</svg>
